<svg xmlns="http://www.w3.org/2000/svg" width="430" height="430" style="width:100%;height:100%;transform:translate3d(0,0,0);content-visibility:visible" viewBox="0 0 430 430"><defs><clipPath id="a"><path d="M0 0h430v430H0z"/></clipPath><clipPath id="d"><path d="M0 0h430v430H0z"/></clipPath><clipPath id="c"><path d="M0 0h430v430H0z"/></clipPath><clipPath id="b"><path d="M0 0h430v430H0z"/></clipPath></defs><g fill="none" clip-path="url(#a)"><g clip-path="url(#b)" style="display:none"><g style="display:none"><path class="primary"/><path class="primary"/><path class="primary"/><path class="primary"/></g><path class="secondary" style="display:none"/></g><g clip-path="url(#c)" style="display:block"><path stroke="#121331" stroke-linejoin="round" stroke-width="12" d="M-155-135c-16.569 0-30 13.431-30 30v210c0 16.569 13.431 30 30 30h310c16.569 0 30-13.431 30-30v-210c0-16.569-13.431-30-30-30h-310z" class="secondary" style="display:block" transform="translate(215 215)"/><path stroke="#08A88A" stroke-linecap="round" stroke-linejoin="round" stroke-width="12" d="M301.368 250v-70l52.5 70v-70m-82.36 54.444c0 8.591-6.964 15.556-15.555 15.556h-19.445c-8.591 0-15.555-6.965-15.555-15.556v-38.888c0-8.591 6.964-15.556 15.555-15.556h19.445c8.591 0 15.555 6.965 15.555 15.556v38.888zm-78.525-38.932c0-8.567-6.945-15.512-15.512-15.512H159.05c-8.567 0-15.513 6.945-15.513 15.512v3.879c0 8.567 6.946 15.512 15.513 15.512h19.39c8.567 0 15.513 6.946 15.513 15.513v4.072c0 8.567-6.946 15.512-15.513 15.512h-19.39c-8.567 0-15.513-6.945-15.513-15.512M68 229.583v.973C68 241.295 76.705 250 87.444 250h7.778c10.739 0 19.444-8.705 19.444-19.444V180" class="primary" style="display:block"/><g style="display:none"><path class="primary"/><path class="primary"/><path class="primary"/><path class="primary"/></g></g><g clip-path="url(#d)" style="display:none"><g style="display:none"><path class="primary"/><path class="primary"/><path class="primary"/><path class="primary"/></g><path class="secondary" style="display:none"/></g></g></svg>