<svg width="64" height="65" viewBox="0 0 64 65" fill="none" xmlns="http://www.w3.org/2000/svg">
<g clip-path="url(#clip0_1405_30971)">
<path d="M31.7299 0.518555C15.5219 0.518556 16.534 7.57492 16.534 7.57492L16.5521 14.8852H32.019V17.0801H10.4087C10.4087 17.0801 0.0371094 15.8993 0.0371094 32.3175C0.0371082 48.7358 9.08962 48.1535 9.08962 48.1535H14.4922V40.5348C14.4922 40.5348 14.201 31.4468 23.4002 31.4468H38.7407C38.7407 31.4468 47.3595 31.5867 47.3595 23.0844V9.0261C47.3595 9.02609 48.6681 0.518555 31.7299 0.518555ZM23.2014 5.43443C24.7403 5.43442 25.984 6.68306 25.984 8.22795C25.984 9.77283 24.7403 11.0215 23.2014 11.0215C21.6626 11.0215 20.4188 9.77283 20.4188 8.22795C20.4188 6.68306 21.6626 5.43443 23.2014 5.43443Z" fill="url(#paint0_linear_1405_30971)"/>
<path d="M32.1901 64.2811C48.3982 64.2811 47.3861 57.2247 47.3861 57.2247L47.368 49.9144H31.901V47.7195H53.5114C53.5114 47.7195 63.883 48.9003 63.883 32.4821C63.883 16.0639 54.8305 16.6461 54.8305 16.6461H49.4279V24.2648C49.4279 24.2648 49.7191 33.3528 40.5199 33.3528H25.1794C25.1794 33.3528 16.5605 33.2129 16.5605 41.7152V55.7735C16.5605 55.7735 15.252 64.2811 32.1901 64.2811ZM40.7187 59.3652C39.1798 59.3652 37.936 58.1166 37.936 56.5717C37.936 55.0268 39.1798 53.7782 40.7187 53.7782C42.2575 53.7782 43.5013 55.0268 43.5013 56.5717C43.5013 58.1166 42.2575 59.3652 40.7187 59.3652Z" fill="url(#paint1_linear_1405_30971)"/>
</g>
<defs>
<linearGradient id="paint0_linear_1405_30971" x1="1570.78" y1="1463.01" x2="9701.74" y2="9450.09" gradientUnits="userSpaceOnUse">
<stop stop-color="#387EB8"/>
<stop offset="1" stop-color="#366994"/>
</linearGradient>
<linearGradient id="paint1_linear_1405_30971" x1="2334.9" y1="2516.51" x2="11065.1" y2="10705.1" gradientUnits="userSpaceOnUse">
<stop stop-color="#FFE052"/>
<stop offset="1" stop-color="#FFC331"/>
</linearGradient>
<clipPath id="clip0_1405_30971">
<rect width="64" height="64" fill="white" transform="translate(0 0.5)"/>
</clipPath>
</defs>
</svg>
